<svg version="1.0" xmlns="http://www.w3.org/2000/svg"
 width="500.000000pt" height="500.000000pt" viewBox="0 0 500.000000 500.000000"
 preserveAspectRatio="xMidYMid meet">

<g transform="translate(0.000000,500.000000) scale(0.100000,-0.100000)"
fill="#000000" stroke="none">
<path d="M1057 2666 c-84 -23 -127 -82 -127 -174 0 -144 195 -225 307 -127
l28 24 -30 30 -30 31 -41 -20 c-32 -16 -47 -18 -67 -11 -55 21 -73 87 -36 135
24 31 76 35 115 9 25 -16 26 -15 56 15 27 27 30 33 18 47 -36 43 -120 61 -193
41z"/>
<path d="M2703 2671 c-84 -21 -143 -92 -143 -174 0 -113 118 -197 237 -168 90
23 143 88 143 173 -1 111 -121 197 -237 169z m103 -112 c26 -29 25 -93 -3
-121 -29 -28 -77 -28 -106 0 -27 28 -28 93 -2 122 25 27 86 27 111 -1z"/>
<path d="M3697 2666 c-81 -22 -129 -84 -129 -166 0 -55 20 -98 62 -133 71 -60
179 -60 250 0 42 35 62 78 62 133 0 123 -115 201 -245 166z m110 -108 c26 -24
31 -82 9 -110 -45 -59 -135 -27 -136 48 0 72 76 110 127 62z"/>
<path d="M1280 2500 l0 -170 54 0 55 0 3 42 c2 23 8 43 15 45 7 3 27 -16 45
-41 32 -46 32 -46 91 -46 l59 0 -16 25 c-9 14 -23 36 -32 50 -16 24 -16 27 4
48 69 73 39 180 -57 207 -20 5 -78 10 -128 10 l-93 0 0 -170z m184 74 c19 -7
21 -45 4 -62 -7 -7 -27 -12 -45 -12 -32 0 -33 1 -33 40 0 38 2 40 29 40 16 0
36 -3 45 -6z"/>
<path d="M1600 2633 c106 -180 110 -188 110 -246 l0 -57 55 0 55 0 0 62 c0 56
4 69 58 161 l57 99 3 -161 2 -161 55 0 55 0 0 39 0 38 55 6 c98 10 150 54 150
127 l0 40 47 0 48 0 0 -125 0 -125 55 0 55 0 0 125 0 125 50 0 50 0 0 45 0 45
-155 0 -155 0 0 -36 0 -37 -26 27 c-38 38 -82 46 -244 46 l-145 0 -28 -50
c-15 -27 -32 -52 -37 -55 -5 -3 -23 19 -41 50 l-31 55 -60 0 -60 0 22 -37z
m524 -59 c19 -7 21 -45 4 -62 -7 -7 -27 -12 -45 -12 -32 0 -33 1 -33 40 0 38
2 40 29 40 16 0 36 -3 45 -6z"/>
<path d="M3275 2450 c-37 -38 -38 -41 -22 -57 16 -17 19 -15 59 24 35 36 40
44 29 57 -19 22 -22 21 -66 -24z"/>
</g>
</svg>
